<svg xmlns="http://www.w3.org/2000/svg" viewBox="0 0 180 180">
  <defs>
    <linearGradient id="bg2" x1="0%" y1="0%" x2="100%" y2="100%">
      <stop offset="0%" style="stop-color:#1a1a3e;stop-opacity:1" />
      <stop offset="100%" style="stop-color:#0f0f1e;stop-opacity:1" />
    </linearGradient>
    <radialGradient id="glow2" cx="50%" cy="50%" r="50%">
      <stop offset="0%" style="stop-color:#8b5cf6;stop-opacity:0.8" />
      <stop offset="50%" style="stop-color:#6366f1;stop-opacity:0.4" />
      <stop offset="100%" style="stop-color:#3b82f6;stop-opacity:0" />
    </radialGradient>
  </defs>
  
  <rect width="180" height="180" fill="url(#bg2)" rx="40"/>
  <circle cx="90" cy="90" r="50" fill="url(#glow2)" opacity="0.6"/>
  <circle cx="90" cy="90" r="35" fill="#1e293b" stroke="#8b5cf6" stroke-width="2"/>
  <circle cx="90" cy="90" r="33" fill="url(#glow2)" opacity="0.3"/>
  <circle cx="90" cy="82" r="22" fill="#6366f1" opacity="0.4"/>
  <circle cx="100" cy="92" r="15" fill="#8b5cf6" opacity="0.5"/>
  <circle cx="82" cy="78" r="9" fill="#a78bfa" opacity="0.6"/>
  
  <!-- Stars -->
  <path d="M 45 30 L 47 36 L 53 38 L 47 40 L 45 46 L 43 40 L 37 38 L 43 36 Z" fill="#fbbf24" opacity="0.8"/>
  <path d="M 135 35 L 137 40 L 142 42 L 137 44 L 135 49 L 133 44 L 128 42 L 133 40 Z" fill="#fbbf24" opacity="0.7"/>
</svg>
